<?xml version="1.0" encoding="UTF-8"?>
<svg viewBox="0 0 441.25 448.75" xmlns="http://www.w3.org/2000/svg">
 <path d="m60.709 3.6428c-11.429 8.5714-52.98 53.709-52.98 53.709s-5.59 220.45 1.3419 232.16c12.594 21.277 157.02 106.64 170.92 106.98 5.2217 0.12398 97.257-54.559 98.781-59.632 5.6351-18.768 4.7349-186.19 0.8876-205.16-3.5116-17.315-81.076-91.602-81.076-91.602l-137.88-36.464zm10.359 32.265c30 6.4286 68.927 17.02 71.07 29.163-1.7857 5-4.5046 7.0475-8.4104 10.649-5.8063 0.46918-35.578-15.019-49.077-19.911-3.4989-4.8917-13.582-19.186-13.582-19.901z" fill="#e43434" fill-rule="evenodd"/>
 <path d="m196.11 38.852c-8.7041-4.7506-35.528-6.6514-40 5.7143-4.2694 11.805 8.2298 75.616 25.65 108.58 32.32-3.1506 66.915-4.7704 95.043-23.449-6.743-13.78-71.259-85.695-80.693-90.844zm-127.72-2.9289c-15.714 11.429-14.026 36.219-14.026 36.219s71.315 15.524 80.725 5.1999c-21.305-3.8951-33.143-13.076-50.811-20.649-7.5517-6.8304-6.7096-15.301-15.888-20.77zm-37.806 72.678c-2.8571 10 33.643 96.868 33.643 96.868s-32.806 65.305-34.235 71.019 35.735-37.642 37.164-50.499 2.1428-31.949-0.71429-37.663-37.286-81.154-35.858-79.725zm90.837 35.042c-17.143 25.714-38.571 52.857-38.571 52.857s42.857-38.571 45.714-44.286-8.5714-10-7.1429-8.5714zm-40.714 82.143c0 12.857 36.429 87.143 36.429 87.143s12.143 15.714 12.143 8.5714-47.143-84.286-48.571-95.714z" fill="#4a4a4a" fill-rule="evenodd" opacity=".25"/>
 <path d="m353.73 324.55c-6.0609 10.607-2.0203 11.112 9.0914 20.708s25.254 13.132 18.688 3.5355-27.274-24.749-27.779-24.244zm-83.07-191.2c2.2098-1.0228 4.0201-3.3314 7.9168-2.8229 6.1696 46.975 5.7749 90.834 1.4321 161.22 32.317 3.864 42.132 5.114 48.56 6.1854 25.714 4.2857 100.71 52.857 107.14 80.714 0.90857 3.9371-5.3571 13.393-10.558 18.75 10.513 13.929-2.7009 25.714-22.366 13.929-9.6652 6.0714-56.073 32.321-63.504 32.321-15.714 0-150.71-37.143-179.29-45.714s-163.1-103.02-148.82-108.73c-0.59173 11.826 157.92 103.78 167.12 105.93-1.4258-43.25 1.3125-167.85 4.5546-237.2 18.899-7.732 38.483-4.92 33.611-11.341s-16.28-38.718-16.28-38.718l53.538 3.0305c7.0711 7.0711 13.463 12.612 16.935 22.448z" fill-rule="evenodd" opacity=".25"/>
 <path d="m201.93 73.888c21.429-11.429 21.082-10.332 21.082-10.332s23.536-9.2498 32.107 13.607 0.23625 30.444-8.0515 36.219c-4.9492 3.4489-20.49 9.5098-20.49 9.5098s-26.581-3.5355-28.009-20.678 2.9438-32.872 3.3622-28.326z" fill="#474747" fill-rule="evenodd"/>
 <path d="m232.94 66.413c-11.764 1.9914-13.64 40.212 10.678 38.571 23.587-1.5913 6.3209-41.449-10.678-38.571z" fill-rule="evenodd"/>
 <path d="m130.71 52.571s16.786 7.1429 12.5 13.214-25.714 19.286-25.714 19.286 31.786-10.714 32.5-17.5-18.929-15.357-19.286-15zm-95.357 58.929 37.143 67.857-3.9286 13.214-33.214-81.071zm27.5 116.79 9.2857 1e-5 -38.929 48.929 29.643-48.929zm65.714-73.929-49.643 49.643-1.0714 18.929 56.786 102.86-52.5-111.07 46.429-60.357zm116.32-91.186s-15.405-2.0203-18.688-0.75762-25.001 11.869-25.001 11.869l20.456-7.0711s-2.7779 11.617-2.0203 15.657 2.2728-14.142 5.3033-16.162 20.203-3.5355 19.951-3.5355zm-185.96-57.028-51.429 51.429 0.35715 231.43s2.1428-223.57 3.5714-227.86 48.214-55.357 47.5-55zm3.6478-0.69404 130.38 33.933-34.194 6.566 12.086-6.8185-108.27-33.68z" fill="#fff" fill-rule="evenodd" opacity=".5"/>
</svg>
